<mxfile host="app.diagrams.net" modified="2024-06-21T06:37:35.073Z" agent="Mozilla/5.0 (Windows NT 10.0; Win64; x64) AppleWebKit/537.36 (KHTML, like Gecko) Chrome/122.0.0.0 Safari/537.36" etag="o0k6DOS_ZTtxjg_ZBkDa" version="24.6.0" type="github">
  <diagram name="Page-1" id="_ugNggZg4IDgyvCS1Ues">
    <mxGraphModel dx="1434" dy="866" grid="1" gridSize="10" guides="1" tooltips="1" connect="1" arrows="1" fold="1" page="1" pageScale="1" pageWidth="1654" pageHeight="1169" math="0" shadow="0">
      <root>
        <mxCell id="0" />
        <mxCell id="1" parent="0" />
        <mxCell id="se2u93l58Sgd2gG3cPSr-23" value="&lt;div style=&quot;&quot;&gt;&lt;br&gt;&lt;/div&gt;" style="rounded=1;whiteSpace=wrap;html=1;align=left;dashed=1;dashPattern=8 8;fillColor=#ffe6cc;strokeColor=#d79b00;" parent="1" vertex="1">
          <mxGeometry x="310" y="500" width="740" height="470" as="geometry" />
        </mxCell>
        <mxCell id="se2u93l58Sgd2gG3cPSr-4" value="&lt;b&gt;Complex Action Browser&lt;/b&gt;&lt;div&gt;&lt;b&gt;(CAB)&lt;/b&gt;&lt;/div&gt;" style="rounded=1;whiteSpace=wrap;html=1;fillColor=#ffe6cc;strokeColor=#d79b00;" parent="1" vertex="1">
          <mxGeometry x="549" y="149" width="191" height="110" as="geometry" />
        </mxCell>
        <mxCell id="se2u93l58Sgd2gG3cPSr-12" style="rounded=0;orthogonalLoop=1;jettySize=auto;html=1;entryX=0;entryY=0.5;entryDx=0;entryDy=0;" parent="1" edge="1">
          <mxGeometry relative="1" as="geometry">
            <mxPoint x="361" y="108.23076923076928" as="sourcePoint" />
            <mxPoint x="411" y="109" as="targetPoint" />
          </mxGeometry>
        </mxCell>
        <mxCell id="se2u93l58Sgd2gG3cPSr-5" value="User" style="shape=umlActor;verticalLabelPosition=bottom;verticalAlign=top;html=1;outlineConnect=0;" parent="1" vertex="1">
          <mxGeometry x="333" y="78" width="30" height="60" as="geometry" />
        </mxCell>
        <mxCell id="se2u93l58Sgd2gG3cPSr-7" value="mobile SQLite DB" style="shape=cylinder3;whiteSpace=wrap;html=1;boundedLbl=1;backgroundOutline=1;size=15;" parent="1" vertex="1">
          <mxGeometry x="825" y="85" width="70" height="80" as="geometry" />
        </mxCell>
        <mxCell id="se2u93l58Sgd2gG3cPSr-14" style="edgeStyle=orthogonalEdgeStyle;rounded=0;orthogonalLoop=1;jettySize=auto;html=1;entryX=0;entryY=0.5;entryDx=0;entryDy=0;curved=1;" parent="1" source="se2u93l58Sgd2gG3cPSr-9" target="se2u93l58Sgd2gG3cPSr-4" edge="1">
          <mxGeometry relative="1" as="geometry" />
        </mxCell>
        <mxCell id="se2u93l58Sgd2gG3cPSr-9" value="Browser" style="image;aspect=fixed;perimeter=ellipsePerimeter;html=1;align=center;shadow=0;dashed=0;fontColor=#000000;labelBackgroundColor=default;fontSize=12;spacingTop=3;image=img/lib/ibm/users/browser.svg;" parent="1" vertex="1">
          <mxGeometry x="413" y="79" width="60" height="60" as="geometry" />
        </mxCell>
        <mxCell id="se2u93l58Sgd2gG3cPSr-13" style="edgeStyle=orthogonalEdgeStyle;rounded=0;orthogonalLoop=1;jettySize=auto;html=1;entryX=0;entryY=0.5;entryDx=0;entryDy=0;entryPerimeter=0;curved=1;" parent="1" source="se2u93l58Sgd2gG3cPSr-4" target="se2u93l58Sgd2gG3cPSr-7" edge="1">
          <mxGeometry relative="1" as="geometry" />
        </mxCell>
        <mxCell id="se2u93l58Sgd2gG3cPSr-34" style="edgeStyle=orthogonalEdgeStyle;rounded=0;orthogonalLoop=1;jettySize=auto;html=1;exitX=0;exitY=0.5;exitDx=0;exitDy=0;entryX=1;entryY=0.5;entryDx=0;entryDy=0;" parent="1" source="se2u93l58Sgd2gG3cPSr-16" target="se2u93l58Sgd2gG3cPSr-24" edge="1">
          <mxGeometry relative="1" as="geometry">
            <mxPoint x="719.9099999999999" y="802.0699999999999" as="sourcePoint" />
            <mxPoint x="658" y="803" as="targetPoint" />
          </mxGeometry>
        </mxCell>
        <mxCell id="se2u93l58Sgd2gG3cPSr-35" value="json" style="edgeLabel;html=1;align=center;verticalAlign=middle;resizable=0;points=[];" parent="se2u93l58Sgd2gG3cPSr-34" vertex="1" connectable="0">
          <mxGeometry x="0.242" relative="1" as="geometry">
            <mxPoint as="offset" />
          </mxGeometry>
        </mxCell>
        <mxCell id="se2u93l58Sgd2gG3cPSr-16" value="" style="html=1;dropTarget=0;whiteSpace=wrap;fillColor=#f8cecc;strokeColor=#b85450;" parent="1" vertex="1">
          <mxGeometry x="728" y="735" width="290" height="175" as="geometry" />
        </mxCell>
        <mxCell id="se2u93l58Sgd2gG3cPSr-17" value="" style="shape=module;jettyWidth=8;jettyHeight=4;" parent="se2u93l58Sgd2gG3cPSr-16" vertex="1">
          <mxGeometry x="1" width="20" height="20" relative="1" as="geometry">
            <mxPoint x="-27" y="7" as="offset" />
          </mxGeometry>
        </mxCell>
        <mxCell id="se2u93l58Sgd2gG3cPSr-18" value="django" style="shape=folder;tabWidth=80;tabHeight=20;tabPosition=left;html=1;whiteSpace=wrap;align=center;fillColor=#D6D6D6;" parent="1" vertex="1">
          <mxGeometry x="824" y="635" width="100" height="60" as="geometry" />
        </mxCell>
        <mxCell id="se2u93l58Sgd2gG3cPSr-19" style="rounded=0;orthogonalLoop=1;jettySize=auto;html=1;exitX=0.5;exitY=0;exitDx=0;exitDy=0;entryX=0.5;entryY=1;entryDx=0;entryDy=0;entryPerimeter=0;" parent="1" source="se2u93l58Sgd2gG3cPSr-16" target="se2u93l58Sgd2gG3cPSr-18" edge="1">
          <mxGeometry relative="1" as="geometry" />
        </mxCell>
        <mxCell id="se2u93l58Sgd2gG3cPSr-20" value="mobile SQLite DB" style="shape=cylinder3;whiteSpace=wrap;html=1;boundedLbl=1;backgroundOutline=1;size=15;" parent="1" vertex="1">
          <mxGeometry x="1122" y="628" width="70" height="80" as="geometry" />
        </mxCell>
        <mxCell id="se2u93l58Sgd2gG3cPSr-22" style="edgeStyle=orthogonalEdgeStyle;rounded=0;orthogonalLoop=1;jettySize=auto;html=1;exitX=1;exitY=0.5;exitDx=0;exitDy=0;entryX=0;entryY=0.5;entryDx=0;entryDy=0;entryPerimeter=0;curved=1;" parent="1" source="se2u93l58Sgd2gG3cPSr-16" target="se2u93l58Sgd2gG3cPSr-20" edge="1">
          <mxGeometry relative="1" as="geometry" />
        </mxCell>
        <mxCell id="se2u93l58Sgd2gG3cPSr-24" value="" style="html=1;dropTarget=0;whiteSpace=wrap;fillColor=#f8cecc;strokeColor=#b85450;" parent="1" vertex="1">
          <mxGeometry x="360" y="736" width="290" height="174" as="geometry" />
        </mxCell>
        <mxCell id="se2u93l58Sgd2gG3cPSr-25" value="" style="shape=module;jettyWidth=8;jettyHeight=4;" parent="se2u93l58Sgd2gG3cPSr-24" vertex="1">
          <mxGeometry x="1" width="20" height="20" relative="1" as="geometry">
            <mxPoint x="-27" y="7" as="offset" />
          </mxGeometry>
        </mxCell>
        <mxCell id="se2u93l58Sgd2gG3cPSr-36" value="Vue js" style="shape=folder;tabWidth=80;tabHeight=20;tabPosition=left;html=1;whiteSpace=wrap;align=center;fillColor=#D6D6D6;" parent="1" vertex="1">
          <mxGeometry x="409" y="635" width="80" height="62" as="geometry" />
        </mxCell>
        <mxCell id="se2u93l58Sgd2gG3cPSr-37" value="d3js" style="shape=folder;tabWidth=80;tabHeight=20;tabPosition=left;html=1;whiteSpace=wrap;align=center;fillColor=#D6D6D6;" parent="1" vertex="1">
          <mxGeometry x="507" y="635" width="80" height="62" as="geometry" />
        </mxCell>
        <mxCell id="se2u93l58Sgd2gG3cPSr-38" style="edgeStyle=orthogonalEdgeStyle;rounded=0;orthogonalLoop=1;jettySize=auto;html=1;exitX=0.25;exitY=0;exitDx=0;exitDy=0;entryX=0.5;entryY=1;entryDx=0;entryDy=0;entryPerimeter=0;" parent="1" source="se2u93l58Sgd2gG3cPSr-24" target="se2u93l58Sgd2gG3cPSr-36" edge="1">
          <mxGeometry relative="1" as="geometry" />
        </mxCell>
        <mxCell id="se2u93l58Sgd2gG3cPSr-39" style="edgeStyle=orthogonalEdgeStyle;rounded=0;orthogonalLoop=1;jettySize=auto;html=1;exitX=0.75;exitY=0;exitDx=0;exitDy=0;entryX=0.5;entryY=1;entryDx=0;entryDy=0;entryPerimeter=0;" parent="1" source="se2u93l58Sgd2gG3cPSr-24" target="se2u93l58Sgd2gG3cPSr-37" edge="1">
          <mxGeometry relative="1" as="geometry" />
        </mxCell>
        <mxCell id="se2u93l58Sgd2gG3cPSr-40" style="rounded=0;orthogonalLoop=1;jettySize=auto;html=1;entryX=0;entryY=0.5;entryDx=0;entryDy=0;" parent="1" edge="1">
          <mxGeometry relative="1" as="geometry">
            <mxPoint x="124" y="663.2307692307693" as="sourcePoint" />
            <mxPoint x="174" y="664" as="targetPoint" />
          </mxGeometry>
        </mxCell>
        <mxCell id="se2u93l58Sgd2gG3cPSr-41" value="User" style="shape=umlActor;verticalLabelPosition=bottom;verticalAlign=top;html=1;outlineConnect=0;" parent="1" vertex="1">
          <mxGeometry x="96" y="633" width="30" height="60" as="geometry" />
        </mxCell>
        <mxCell id="se2u93l58Sgd2gG3cPSr-44" style="edgeStyle=orthogonalEdgeStyle;rounded=0;orthogonalLoop=1;jettySize=auto;html=1;entryX=0;entryY=0.5;entryDx=0;entryDy=0;curved=1;" parent="1" source="se2u93l58Sgd2gG3cPSr-42" target="se2u93l58Sgd2gG3cPSr-24" edge="1">
          <mxGeometry relative="1" as="geometry" />
        </mxCell>
        <mxCell id="se2u93l58Sgd2gG3cPSr-42" value="Browser" style="image;aspect=fixed;perimeter=ellipsePerimeter;html=1;align=center;shadow=0;dashed=0;fontColor=#000000;labelBackgroundColor=default;fontSize=12;spacingTop=3;image=img/lib/ibm/users/browser.svg;" parent="1" vertex="1">
          <mxGeometry x="176" y="634" width="60" height="60" as="geometry" />
        </mxCell>
        <mxCell id="se2u93l58Sgd2gG3cPSr-46" value="Complex Action Browser (CAB)" style="text;strokeColor=none;fillColor=none;html=1;fontSize=24;fontStyle=1;verticalAlign=middle;align=center;" parent="1" vertex="1">
          <mxGeometry x="619" y="551" width="100" height="40" as="geometry" />
        </mxCell>
        <mxCell id="se2u93l58Sgd2gG3cPSr-49" value="CAB Backend&amp;nbsp;&lt;span style=&quot;background-color: initial;&quot;&gt;(python)&amp;nbsp;&lt;/span&gt;" style="text;html=1;align=center;verticalAlign=middle;whiteSpace=wrap;rounded=0;fontStyle=1" parent="1" vertex="1">
          <mxGeometry x="729" y="734" width="162" height="30" as="geometry" />
        </mxCell>
        <mxCell id="se2u93l58Sgd2gG3cPSr-52" value="DB Reader" style="rounded=1;whiteSpace=wrap;html=1;fillColor=#ffe6cc;strokeColor=#d79b00;" parent="1" vertex="1">
          <mxGeometry x="890" y="797.5" width="110" height="61.5" as="geometry" />
        </mxCell>
        <mxCell id="se2u93l58Sgd2gG3cPSr-53" value="Data Handler" style="rounded=1;whiteSpace=wrap;html=1;fillColor=#ffe6cc;strokeColor=#d79b00;" parent="1" vertex="1">
          <mxGeometry x="758" y="796.5" width="112" height="62.5" as="geometry" />
        </mxCell>
        <mxCell id="se2u93l58Sgd2gG3cPSr-54" value="&lt;span style=&quot;&quot;&gt;CAB Frontand&amp;nbsp;&lt;/span&gt;&lt;span style=&quot;background-color: initial;&quot;&gt;(js, html, css)&lt;/span&gt;" style="text;html=1;align=center;verticalAlign=middle;whiteSpace=wrap;rounded=0;fontStyle=1" parent="1" vertex="1">
          <mxGeometry x="360" y="735" width="170" height="30" as="geometry" />
        </mxCell>
        <mxCell id="se2u93l58Sgd2gG3cPSr-56" value="&lt;div&gt;Tree Viewer&lt;/div&gt;" style="rounded=1;whiteSpace=wrap;html=1;fillColor=#ffe6cc;strokeColor=#d79b00;" parent="1" vertex="1">
          <mxGeometry x="376" y="835.5" width="113" height="57" as="geometry" />
        </mxCell>
        <mxCell id="se2u93l58Sgd2gG3cPSr-57" value="Checker" style="rounded=1;whiteSpace=wrap;html=1;fillColor=#ffe6cc;strokeColor=#d79b00;" parent="1" vertex="1">
          <mxGeometry x="511" y="835.5" width="107" height="59.5" as="geometry" />
        </mxCell>
        <mxCell id="se2u93l58Sgd2gG3cPSr-58" value="Route Viewer" style="rounded=1;whiteSpace=wrap;html=1;fillColor=#ffe6cc;strokeColor=#d79b00;" parent="1" vertex="1">
          <mxGeometry x="452.5" y="765" width="105" height="59.5" as="geometry" />
        </mxCell>
      </root>
    </mxGraphModel>
  </diagram>
</mxfile>
